<mxfile host="Electron" agent="Mozilla/5.0 (Windows NT 10.0; Win64; x64) AppleWebKit/537.36 (KHTML, like Gecko) draw.io/26.2.15 Chrome/134.0.6998.205 Electron/35.2.1 Safari/537.36" version="26.2.15">
  <diagram name="第 1 页" id="V6KrrqiqoOPS8kTPFdT5">
    <mxGraphModel dx="442" dy="314" grid="1" gridSize="10" guides="1" tooltips="1" connect="1" arrows="1" fold="1" page="1" pageScale="1" pageWidth="827" pageHeight="1169" math="1" shadow="0">
      <root>
        <mxCell id="0" />
        <mxCell id="1" parent="0" />
        <mxCell id="pyMe2at5CmqA6a7m3_Xk-18" value="" style="endArrow=classic;html=1;rounded=0;" parent="1" edge="1">
          <mxGeometry width="50" height="50" relative="1" as="geometry">
            <mxPoint x="280" y="480" as="sourcePoint" />
            <mxPoint x="280" y="300" as="targetPoint" />
          </mxGeometry>
        </mxCell>
        <mxCell id="pyMe2at5CmqA6a7m3_Xk-19" value="" style="endArrow=classic;html=1;rounded=0;" parent="1" edge="1">
          <mxGeometry width="50" height="50" relative="1" as="geometry">
            <mxPoint x="240" y="480" as="sourcePoint" />
            <mxPoint x="240" y="300" as="targetPoint" />
          </mxGeometry>
        </mxCell>
        <mxCell id="pyMe2at5CmqA6a7m3_Xk-20" value="" style="endArrow=classic;html=1;rounded=0;" parent="1" edge="1">
          <mxGeometry width="50" height="50" relative="1" as="geometry">
            <mxPoint x="199.5" y="480" as="sourcePoint" />
            <mxPoint x="199.5" y="300" as="targetPoint" />
          </mxGeometry>
        </mxCell>
        <mxCell id="pyMe2at5CmqA6a7m3_Xk-1" value="" style="ellipse;whiteSpace=wrap;html=1;aspect=fixed;fillColor=none;movable=0;resizable=0;rotatable=0;deletable=0;editable=0;locked=1;connectable=0;" parent="1" vertex="1">
          <mxGeometry x="160" y="80" width="160" height="160" as="geometry" />
        </mxCell>
        <mxCell id="pyMe2at5CmqA6a7m3_Xk-2" value="" style="ellipse;whiteSpace=wrap;html=1;fillColor=none;dashed=1;dashPattern=8 8;movable=0;resizable=0;rotatable=0;deletable=0;editable=0;locked=1;connectable=0;" parent="1" vertex="1">
          <mxGeometry x="160" y="135" width="160" height="50" as="geometry" />
        </mxCell>
        <mxCell id="pyMe2at5CmqA6a7m3_Xk-3" value="" style="whiteSpace=wrap;html=1;fillColor=none;dashed=1;dashPattern=8 8;rotation=90;shape=waypoint;sketch=0;fillStyle=solid;size=6;pointerEvents=1;points=[];resizable=0;rotatable=0;perimeter=centerPerimeter;snapToPoint=1;movable=0;deletable=0;editable=0;locked=1;connectable=0;" parent="1" vertex="1">
          <mxGeometry x="160" y="135" width="160" height="50" as="geometry" />
        </mxCell>
        <mxCell id="pyMe2at5CmqA6a7m3_Xk-4" value="`q`" style="text;html=1;align=center;verticalAlign=middle;resizable=0;points=[];autosize=1;strokeColor=none;fillColor=none;" parent="1" vertex="1">
          <mxGeometry x="230" y="145" width="40" height="30" as="geometry" />
        </mxCell>
        <mxCell id="pyMe2at5CmqA6a7m3_Xk-5" value="" style="endArrow=classic;html=1;rounded=0;" parent="1" edge="1">
          <mxGeometry width="50" height="50" relative="1" as="geometry">
            <mxPoint x="240" y="160" as="sourcePoint" />
            <mxPoint x="160" y="160" as="targetPoint" />
          </mxGeometry>
        </mxCell>
        <mxCell id="pyMe2at5CmqA6a7m3_Xk-6" value="`r`" style="text;html=1;align=center;verticalAlign=middle;resizable=0;points=[];autosize=1;strokeColor=none;fillColor=none;" parent="1" vertex="1">
          <mxGeometry x="180" y="135" width="40" height="30" as="geometry" />
        </mxCell>
        <mxCell id="pyMe2at5CmqA6a7m3_Xk-9" value="" style="endArrow=classic;html=1;rounded=0;" parent="1" edge="1">
          <mxGeometry width="50" height="50" relative="1" as="geometry">
            <mxPoint x="310" y="120" as="sourcePoint" />
            <mxPoint x="380" y="80" as="targetPoint" />
          </mxGeometry>
        </mxCell>
        <mxCell id="pyMe2at5CmqA6a7m3_Xk-10" value="`E`" style="text;html=1;align=center;verticalAlign=middle;resizable=0;points=[];autosize=1;strokeColor=none;fillColor=none;" parent="1" vertex="1">
          <mxGeometry x="320" y="80" width="40" height="30" as="geometry" />
        </mxCell>
        <mxCell id="pyMe2at5CmqA6a7m3_Xk-11" value="" style="endArrow=none;dashed=1;html=1;rounded=0;" parent="1" edge="1">
          <mxGeometry width="50" height="50" relative="1" as="geometry">
            <mxPoint x="240" y="160" as="sourcePoint" />
            <mxPoint x="310" y="120" as="targetPoint" />
          </mxGeometry>
        </mxCell>
        <mxCell id="pyMe2at5CmqA6a7m3_Xk-12" value="" style="shape=process;whiteSpace=wrap;html=1;backgroundOutline=1;rotation=90;fillColor=none;direction=south;" parent="1" vertex="1">
          <mxGeometry x="587.5" y="90" width="25" height="140" as="geometry" />
        </mxCell>
        <mxCell id="pyMe2at5CmqA6a7m3_Xk-13" value="`N`" style="text;html=1;align=center;verticalAlign=middle;whiteSpace=wrap;rounded=0;" parent="1" vertex="1">
          <mxGeometry x="527.5" y="145" width="60" height="30" as="geometry" />
        </mxCell>
        <mxCell id="pyMe2at5CmqA6a7m3_Xk-16" value="" style="edgeStyle=orthogonalEdgeStyle;rounded=0;orthogonalLoop=1;jettySize=auto;html=1;" parent="1" source="pyMe2at5CmqA6a7m3_Xk-14" target="pyMe2at5CmqA6a7m3_Xk-13" edge="1">
          <mxGeometry relative="1" as="geometry" />
        </mxCell>
        <mxCell id="pyMe2at5CmqA6a7m3_Xk-14" value="`S`" style="text;html=1;align=center;verticalAlign=middle;whiteSpace=wrap;rounded=0;" parent="1" vertex="1">
          <mxGeometry x="612.5" y="145" width="60" height="30" as="geometry" />
        </mxCell>
        <mxCell id="pyMe2at5CmqA6a7m3_Xk-15" value="" style="curved=1;endArrow=classic;html=1;rounded=0;" parent="1" edge="1">
          <mxGeometry width="50" height="50" relative="1" as="geometry">
            <mxPoint x="530" y="160" as="sourcePoint" />
            <mxPoint x="670" y="160" as="targetPoint" />
            <Array as="points">
              <mxPoint x="470" y="120" />
              <mxPoint x="730" y="120" />
            </Array>
          </mxGeometry>
        </mxCell>
        <mxCell id="pyMe2at5CmqA6a7m3_Xk-17" value="" style="ellipse;whiteSpace=wrap;html=1;fillColor=#f5f5f5;opacity=50;fontColor=#333333;strokeColor=#FFFFFF;strokeWidth=2;" parent="1" vertex="1">
          <mxGeometry x="160" y="370" width="160" height="60" as="geometry" />
        </mxCell>
        <mxCell id="pyMe2at5CmqA6a7m3_Xk-21" value="`\mathbf{B}` 变大" style="text;html=1;align=center;verticalAlign=middle;whiteSpace=wrap;rounded=0;" parent="1" vertex="1">
          <mxGeometry x="290" y="320" width="60" height="30" as="geometry" />
        </mxCell>
        <mxCell id="pyMe2at5CmqA6a7m3_Xk-22" value="" style="endArrow=classic;html=1;rounded=0;entryX=0.454;entryY=0.997;entryDx=0;entryDy=0;entryPerimeter=0;" parent="1" target="pyMe2at5CmqA6a7m3_Xk-17" edge="1">
          <mxGeometry width="50" height="50" relative="1" as="geometry">
            <mxPoint x="240" y="430" as="sourcePoint" />
            <mxPoint x="290" y="380" as="targetPoint" />
          </mxGeometry>
        </mxCell>
        <mxCell id="pyMe2at5CmqA6a7m3_Xk-23" value="`\mathbf{E}` 产生" style="text;html=1;align=center;verticalAlign=middle;resizable=0;points=[];autosize=1;strokeColor=none;fillColor=none;" parent="1" vertex="1">
          <mxGeometry x="250" y="420" width="110" height="30" as="geometry" />
        </mxCell>
        <mxCell id="pyMe2at5CmqA6a7m3_Xk-24" value="" style="endArrow=classic;html=1;rounded=0;" parent="1" edge="1">
          <mxGeometry width="50" height="50" relative="1" as="geometry">
            <mxPoint x="440" y="360" as="sourcePoint" />
            <mxPoint x="560" y="240" as="targetPoint" />
          </mxGeometry>
        </mxCell>
        <mxCell id="pyMe2at5CmqA6a7m3_Xk-25" value="`I`" style="text;html=1;align=center;verticalAlign=middle;whiteSpace=wrap;rounded=0;" parent="1" vertex="1">
          <mxGeometry x="510" y="230" width="60" height="30" as="geometry" />
        </mxCell>
        <mxCell id="pyMe2at5CmqA6a7m3_Xk-26" value="" style="ellipse;whiteSpace=wrap;html=1;aspect=fixed;fillColor=none;strokeColor=#B5B5B5;" parent="1" vertex="1">
          <mxGeometry x="470" y="250" width="80" height="80" as="geometry" />
        </mxCell>
        <mxCell id="pyMe2at5CmqA6a7m3_Xk-28" value="" style="endArrow=classic;html=1;rounded=0;fontFamily=Helvetica;fontSize=12;fontColor=default;resizable=0;entryX=0.589;entryY=0.007;entryDx=0;entryDy=0;entryPerimeter=0;strokeColor=#B5B5B5;" parent="1" target="pyMe2at5CmqA6a7m3_Xk-26" edge="1">
          <mxGeometry width="50" height="50" relative="1" as="geometry">
            <mxPoint x="510" y="250" as="sourcePoint" />
            <mxPoint x="560" y="200" as="targetPoint" />
          </mxGeometry>
        </mxCell>
        <mxCell id="pyMe2at5CmqA6a7m3_Xk-33" value="" style="ellipse;whiteSpace=wrap;html=1;aspect=fixed;fillColor=none;strokeColor=#B5B5B5;" parent="1" vertex="1">
          <mxGeometry x="450" y="270" width="80" height="80" as="geometry" />
        </mxCell>
        <mxCell id="pyMe2at5CmqA6a7m3_Xk-34" value="" style="endArrow=classic;html=1;rounded=0;fontFamily=Helvetica;fontSize=12;fontColor=default;resizable=0;entryX=0.589;entryY=0.007;entryDx=0;entryDy=0;entryPerimeter=0;strokeColor=#B5B5B5;" parent="1" target="pyMe2at5CmqA6a7m3_Xk-33" edge="1">
          <mxGeometry width="50" height="50" relative="1" as="geometry">
            <mxPoint x="490" y="270" as="sourcePoint" />
            <mxPoint x="540" y="220" as="targetPoint" />
          </mxGeometry>
        </mxCell>
        <mxCell id="pyMe2at5CmqA6a7m3_Xk-35" value="`\mathbf{B}`" style="text;html=1;align=center;verticalAlign=middle;whiteSpace=wrap;rounded=0;fontFamily=Helvetica;fontSize=12;fontColor=default;resizable=0;" parent="1" vertex="1">
          <mxGeometry x="510" y="320" width="60" height="30" as="geometry" />
        </mxCell>
        <mxCell id="Ydg70bVYFhbcPTGMbJZq-1" value="" style="ellipse;whiteSpace=wrap;html=1;aspect=fixed;fillColor=none;" vertex="1" parent="1">
          <mxGeometry x="480" y="400" width="80" height="80" as="geometry" />
        </mxCell>
        <mxCell id="Ydg70bVYFhbcPTGMbJZq-3" value="" style="ellipse;whiteSpace=wrap;html=1;aspect=fixed;fillColor=none;" vertex="1" parent="1">
          <mxGeometry x="500" y="400" width="80" height="80" as="geometry" />
        </mxCell>
        <mxCell id="Ydg70bVYFhbcPTGMbJZq-9" value="" style="ellipse;whiteSpace=wrap;html=1;aspect=fixed;fillColor=none;" vertex="1" parent="1">
          <mxGeometry x="519.5" y="400" width="80" height="80" as="geometry" />
        </mxCell>
        <mxCell id="Ydg70bVYFhbcPTGMbJZq-11" value="" style="ellipse;whiteSpace=wrap;html=1;aspect=fixed;fillColor=none;" vertex="1" parent="1">
          <mxGeometry x="540" y="400" width="80" height="80" as="geometry" />
        </mxCell>
        <mxCell id="Ydg70bVYFhbcPTGMbJZq-17" value="" style="endArrow=none;html=1;rounded=0;" edge="1" parent="1">
          <mxGeometry width="50" height="50" relative="1" as="geometry">
            <mxPoint x="480" y="520" as="sourcePoint" />
            <mxPoint x="480" y="440" as="targetPoint" />
          </mxGeometry>
        </mxCell>
        <mxCell id="Ydg70bVYFhbcPTGMbJZq-18" value="" style="endArrow=none;html=1;rounded=0;" edge="1" parent="1">
          <mxGeometry width="50" height="50" relative="1" as="geometry">
            <mxPoint x="540" y="520" as="sourcePoint" />
            <mxPoint x="540" y="440" as="targetPoint" />
          </mxGeometry>
        </mxCell>
        <mxCell id="Ydg70bVYFhbcPTGMbJZq-23" value="" style="endArrow=classic;html=1;rounded=0;entryX=0;entryY=0.425;entryDx=0;entryDy=0;entryPerimeter=0;" edge="1" parent="1">
          <mxGeometry width="50" height="50" relative="1" as="geometry">
            <mxPoint x="500" y="438" as="sourcePoint" />
            <mxPoint x="500" y="432" as="targetPoint" />
          </mxGeometry>
        </mxCell>
        <mxCell id="Ydg70bVYFhbcPTGMbJZq-24" value="" style="endArrow=classic;html=1;rounded=0;entryX=0;entryY=0.425;entryDx=0;entryDy=0;entryPerimeter=0;" edge="1" parent="1">
          <mxGeometry width="50" height="50" relative="1" as="geometry">
            <mxPoint x="519.5" y="438" as="sourcePoint" />
            <mxPoint x="519.5" y="432" as="targetPoint" />
          </mxGeometry>
        </mxCell>
        <mxCell id="Ydg70bVYFhbcPTGMbJZq-25" value="" style="endArrow=classic;html=1;rounded=0;entryX=0;entryY=0.425;entryDx=0;entryDy=0;entryPerimeter=0;" edge="1" parent="1">
          <mxGeometry width="50" height="50" relative="1" as="geometry">
            <mxPoint x="539.91" y="438" as="sourcePoint" />
            <mxPoint x="539.91" y="432" as="targetPoint" />
          </mxGeometry>
        </mxCell>
        <mxCell id="Ydg70bVYFhbcPTGMbJZq-26" value="" style="endArrow=classic;html=1;rounded=0;entryX=0;entryY=0.425;entryDx=0;entryDy=0;entryPerimeter=0;" edge="1" parent="1">
          <mxGeometry width="50" height="50" relative="1" as="geometry">
            <mxPoint x="480" y="438" as="sourcePoint" />
            <mxPoint x="480" y="432" as="targetPoint" />
          </mxGeometry>
        </mxCell>
        <mxCell id="Ydg70bVYFhbcPTGMbJZq-27" value="" style="rounded=0;whiteSpace=wrap;html=1;fillColor=none;strokeColor=#757575;" vertex="1" parent="1">
          <mxGeometry x="460" y="380" width="180" height="50" as="geometry" />
        </mxCell>
        <mxCell id="Ydg70bVYFhbcPTGMbJZq-28" value="" style="endArrow=classic;html=1;rounded=0;entryX=-0.002;entryY=0.674;entryDx=0;entryDy=0;entryPerimeter=0;strokeColor=#777777;" edge="1" parent="1" target="Ydg70bVYFhbcPTGMbJZq-27">
          <mxGeometry width="50" height="50" relative="1" as="geometry">
            <mxPoint x="460" y="420" as="sourcePoint" />
            <mxPoint x="510" y="370" as="targetPoint" />
          </mxGeometry>
        </mxCell>
        <mxCell id="Ydg70bVYFhbcPTGMbJZq-30" value="`I`" style="text;html=1;align=center;verticalAlign=middle;whiteSpace=wrap;rounded=0;" vertex="1" parent="1">
          <mxGeometry x="500" y="490" width="60" height="30" as="geometry" />
        </mxCell>
        <mxCell id="Ydg70bVYFhbcPTGMbJZq-31" value="`B`" style="text;html=1;align=center;verticalAlign=middle;resizable=0;points=[];autosize=1;strokeColor=none;fillColor=none;" vertex="1" parent="1">
          <mxGeometry x="430" y="400" width="40" height="30" as="geometry" />
        </mxCell>
      </root>
    </mxGraphModel>
  </diagram>
</mxfile>
